<mxfile host="app.diagrams.net" modified="2024-07-02T06:34:28.252Z" agent="Mozilla/5.0 (Macintosh; Intel Mac OS X 10_15_7) AppleWebKit/537.36 (KHTML, like Gecko) Chrome/125.0.0.0 Safari/537.36" version="24.6.4" etag="41V5GAvZdTGQUq2gv_xN" type="github">
  <diagram name="Page-1" id="U46Y4lgH2yM-9yAIyv97">
    <mxGraphModel>
      <root>
        <mxCell id="0" />
        <mxCell id="1" parent="0" />
      </root>
    </mxGraphModel>
  </diagram>
</mxfile>
